<mxfile host="app.diagrams.net" modified="2021-06-30T16:33:27.576Z" agent="5.0 (Macintosh; Intel Mac OS X 10_15_6) AppleWebKit/605.1.15 (KHTML, like Gecko) Version/14.0.3 Safari/605.1.15" etag="0m6PF0yHjwdnTGcqXN7T" version="14.6.11" type="github">
  <diagram id="InDSKGj0FQtozRI6AR3u" name="第 1 页">
    <mxGraphModel dx="946" dy="558" grid="1" gridSize="10" guides="1" tooltips="1" connect="1" arrows="1" fold="1" page="1" pageScale="1" pageWidth="827" pageHeight="1169" math="0" shadow="0">
      <root>
        <mxCell id="0" />
        <mxCell id="1" parent="0" />
        <mxCell id="248P1iEzuTbMAFxhnoiF-2" value="" style="rounded=0;whiteSpace=wrap;html=1;fontSize=16;fillColor=#f9f7ed;strokeColor=#36393d;" vertex="1" parent="1">
          <mxGeometry x="320" y="160" width="240" height="120" as="geometry" />
        </mxCell>
        <mxCell id="248P1iEzuTbMAFxhnoiF-1" value="内存数据" style="rounded=1;whiteSpace=wrap;html=1;fontSize=16;fillColor=#cdeb8b;strokeColor=#36393d;" vertex="1" parent="1">
          <mxGeometry x="365" y="190" width="150" height="70" as="geometry" />
        </mxCell>
        <mxCell id="248P1iEzuTbMAFxhnoiF-3" value="Redis 服务器" style="text;html=1;align=center;verticalAlign=middle;resizable=0;points=[];autosize=1;strokeColor=none;fontSize=16;" vertex="1" parent="1">
          <mxGeometry x="390" y="120" width="110" height="20" as="geometry" />
        </mxCell>
        <mxCell id="248P1iEzuTbMAFxhnoiF-4" value="" style="rounded=0;whiteSpace=wrap;html=1;fontSize=16;fillColor=#f9f7ed;strokeColor=#36393d;" vertex="1" parent="1">
          <mxGeometry x="40" y="440" width="200" height="120" as="geometry" />
        </mxCell>
        <mxCell id="248P1iEzuTbMAFxhnoiF-5" value="备份数据" style="rounded=1;whiteSpace=wrap;html=1;fontSize=16;fillColor=#d5e8d4;strokeColor=#82b366;" vertex="1" parent="1">
          <mxGeometry x="62.5" y="465" width="150" height="70" as="geometry" />
        </mxCell>
        <mxCell id="248P1iEzuTbMAFxhnoiF-6" value="Redis 服务器" style="text;html=1;align=center;verticalAlign=middle;resizable=0;points=[];autosize=1;strokeColor=none;fontSize=16;" vertex="1" parent="1">
          <mxGeometry x="82.5" y="565" width="110" height="20" as="geometry" />
        </mxCell>
        <mxCell id="248P1iEzuTbMAFxhnoiF-9" value="Redis 服务器" style="text;html=1;align=center;verticalAlign=middle;resizable=0;points=[];autosize=1;strokeColor=none;fontSize=16;" vertex="1" parent="1">
          <mxGeometry x="365" y="565" width="110" height="20" as="geometry" />
        </mxCell>
        <mxCell id="248P1iEzuTbMAFxhnoiF-15" value="" style="rounded=0;whiteSpace=wrap;html=1;fontSize=16;fillColor=#f9f7ed;strokeColor=#36393d;" vertex="1" parent="1">
          <mxGeometry x="320" y="440" width="200" height="120" as="geometry" />
        </mxCell>
        <mxCell id="248P1iEzuTbMAFxhnoiF-16" value="备份数据" style="rounded=1;whiteSpace=wrap;html=1;fontSize=16;fillColor=#d5e8d4;strokeColor=#82b366;" vertex="1" parent="1">
          <mxGeometry x="342.5" y="465" width="150" height="70" as="geometry" />
        </mxCell>
        <mxCell id="248P1iEzuTbMAFxhnoiF-17" value="Redis 服务器" style="text;html=1;align=center;verticalAlign=middle;resizable=0;points=[];autosize=1;strokeColor=none;fontSize=16;" vertex="1" parent="1">
          <mxGeometry x="645" y="565" width="110" height="20" as="geometry" />
        </mxCell>
        <mxCell id="248P1iEzuTbMAFxhnoiF-18" value="" style="rounded=0;whiteSpace=wrap;html=1;fontSize=16;fillColor=#f9f7ed;strokeColor=#36393d;" vertex="1" parent="1">
          <mxGeometry x="600" y="440" width="200" height="120" as="geometry" />
        </mxCell>
        <mxCell id="248P1iEzuTbMAFxhnoiF-19" value="备份数据" style="rounded=1;whiteSpace=wrap;html=1;fontSize=16;fillColor=#d5e8d4;strokeColor=#82b366;" vertex="1" parent="1">
          <mxGeometry x="622.5" y="465" width="150" height="70" as="geometry" />
        </mxCell>
        <mxCell id="248P1iEzuTbMAFxhnoiF-20" value="" style="shape=flexArrow;endArrow=classic;html=1;fontSize=16;" edge="1" parent="1">
          <mxGeometry width="50" height="50" relative="1" as="geometry">
            <mxPoint x="400" y="290" as="sourcePoint" />
            <mxPoint x="150" y="430" as="targetPoint" />
          </mxGeometry>
        </mxCell>
        <mxCell id="248P1iEzuTbMAFxhnoiF-21" value="" style="shape=flexArrow;endArrow=classic;html=1;fontSize=16;" edge="1" parent="1">
          <mxGeometry width="50" height="50" relative="1" as="geometry">
            <mxPoint x="430" y="290" as="sourcePoint" />
            <mxPoint x="430" y="430" as="targetPoint" />
          </mxGeometry>
        </mxCell>
        <mxCell id="248P1iEzuTbMAFxhnoiF-22" value="" style="shape=flexArrow;endArrow=classic;html=1;fontSize=16;" edge="1" parent="1">
          <mxGeometry width="50" height="50" relative="1" as="geometry">
            <mxPoint x="480" y="290" as="sourcePoint" />
            <mxPoint x="700" y="430" as="targetPoint" />
          </mxGeometry>
        </mxCell>
        <mxCell id="248P1iEzuTbMAFxhnoiF-23" value="同步" style="text;html=1;align=center;verticalAlign=middle;resizable=0;points=[];autosize=1;strokeColor=none;fontSize=16;" vertex="1" parent="1">
          <mxGeometry x="590" y="330" width="50" height="20" as="geometry" />
        </mxCell>
        <mxCell id="248P1iEzuTbMAFxhnoiF-24" value="同步" style="text;html=1;align=center;verticalAlign=middle;resizable=0;points=[];autosize=1;strokeColor=none;fontSize=16;" vertex="1" parent="1">
          <mxGeometry x="442.5" y="350" width="50" height="20" as="geometry" />
        </mxCell>
        <mxCell id="248P1iEzuTbMAFxhnoiF-25" value="同步" style="text;html=1;align=center;verticalAlign=middle;resizable=0;points=[];autosize=1;strokeColor=none;fontSize=16;" vertex="1" parent="1">
          <mxGeometry x="200" y="330" width="50" height="20" as="geometry" />
        </mxCell>
      </root>
    </mxGraphModel>
  </diagram>
</mxfile>
